<?xml version="1.0" standalone="no"?>
<!DOCTYPE svg PUBLIC "-//W3C//DTD SVG 20010904//EN"
 "http://www.w3.org/TR/2001/REC-SVG-20010904/DTD/svg10.dtd">
<svg version="1.0" xmlns="http://www.w3.org/2000/svg"
 width="700.000000pt" height="700.000000pt" viewBox="0 0 700.000000 700.000000"
 preserveAspectRatio="xMidYMid meet">
<metadata>
Created by potrace 1.11, written by Peter Selinger 2001-2013
</metadata>
<g transform="translate(0.000000,700.000000) scale(0.100000,-0.100000)"
fill="#000000" stroke="none">
<path d="M3339 6996 c-2 -2 -35 -7 -74 -11 -230 -22 -483 -98 -707 -212 -100
-51 -288 -169 -333 -210 -11 -10 -37 -30 -57 -45 -55 -42 -206 -195 -277 -281
-151 -186 -285 -429 -360 -653 -22 -67 -43 -134 -45 -150 -3 -16 -10 -44 -15
-62 -5 -18 -10 -35 -10 -37 1 -6 -11 -80 -17 -110 -18 -87 -24 -364 -11 -485
39 -368 240 -778 576 -1170 98 -116 334 -345 477 -464 262 -219 566 -431 852
-594 l162 -93 117 67 c445 252 854 556 1168 869 158 158 194 196 283 310 35
44 70 88 79 99 58 71 171 253 228 366 141 282 200 519 199 805 0 158 -6 219
-39 417 -3 14 -21 81 -40 147 -199 691 -744 1231 -1440 1425 -49 14 -105 28
-124 31 -19 3 -37 8 -40 10 -4 2 -38 6 -76 10 -39 4 -74 10 -79 13 -10 5 -391
13 -397 8z"/>
<path d="M1389 3247 c-9 -7 -31 -24 -50 -39 -19 -14 -326 -245 -684 -513 -357
-268 -649 -489 -648 -492 1 -3 403 -306 895 -674 491 -368 907 -680 923 -692
28 -22 493 -371 559 -420 16 -12 41 -31 55 -43 130 -103 320 -210 476 -267
209 -77 385 -106 620 -102 77 1 154 5 170 8 17 4 50 9 74 12 67 10 227 52 306
81 91 34 253 115 324 162 49 32 627 460 657 487 7 6 22 18 35 27 13 9 310 231
659 493 349 262 646 484 660 495 14 10 149 112 301 226 l277 207 -27 22 c-55
45 -1378 1035 -1384 1035 -3 0 -43 -44 -88 -97 -106 -125 -168 -190 -303 -322
-134 -131 -157 -151 -311 -280 -28 -23 -246 -192 -275 -214 -317 -228 -604
-404 -921 -562 l-189 -95 -181 90 c-202 101 -286 148 -474 263 -164 100 -432
283 -535 364 -8 7 -44 35 -80 63 -122 96 -261 212 -320 268 -181 173 -331 329
-416 432 -16 19 -33 40 -39 47 -41 50 -41 50 -66 30z"/>
</g>
</svg>
